HIERARCHY
ROOT Hips
{
	OFFSET 0.000000 0.000000 0.000000 
	CHANNELS 6 Xposition Yposition Zposition Zrotation Yrotation Xrotation
	JOINT LeftUpLeg
	{
		OFFSET 1.363060 -1.794630 0.839290 
		CHANNELS 3 Zrotation Yrotation Xrotation
		JOINT LeftLeg
		{
			OFFSET 2.448110 -6.726130 0.000000 
			CHANNELS 3 Zrotation Yrotation Xrotation
			JOINT LeftFoot
			{
				OFFSET 2.562200 -7.039590 0.000000 
				CHANNELS 3 Zrotation Yrotation Xrotation
				JOINT LeftToeBase
				{
					OFFSET 0.157640 -0.433110 2.322550 
					CHANNELS 3 Zrotation Yrotation Xrotation
					End Site
					{
						OFFSET 0.000000 0.000000 0.000000 
					}
				}
			}
		}
	}
	JOINT RightUpLeg
	{
		OFFSET -1.305520 -1.794630 0.839290 
		CHANNELS 3 Zrotation Yrotation Xrotation
		JOINT RightLeg
		{
			OFFSET -2.542530 -6.985550 0.000000 
			CHANNELS 3 Zrotation Yrotation Xrotation
			JOINT RightFoot
			{
				OFFSET -2.568260 -7.056230 0.000000 
				CHANNELS 3 Zrotation Yrotation Xrotation
				JOINT RightToeBase
				{
					OFFSET -0.164730 -0.452590 2.363150 
					CHANNELS 3 Zrotation Yrotation Xrotation
					End Site
					{
						OFFSET 0.000000 0.000000 0.000000 
					}
				}
			}
		}
	}
	JOINT Spine
	{
		OFFSET 0.028270 2.035590 -0.193380 
		CHANNELS 3 Zrotation Yrotation Xrotation
		JOINT Spine1
		{
			OFFSET 0.056720 2.048850 -0.042750 
			CHANNELS 3 Zrotation Yrotation Xrotation
			JOINT Neck1
			{
				OFFSET -0.054170 1.746240 0.172020 
				CHANNELS 3 Zrotation Yrotation Xrotation
				JOINT Head
				{
					OFFSET 0.104070 1.761360 -0.123970 
					CHANNELS 3 Zrotation Yrotation Xrotation
					End Site
					{
						OFFSET 0.000000 0.000000 0.000000 
					}
				}
			}
			JOINT LeftArm
			{
				OFFSET 3.362410 1.200890 -0.311210 
				CHANNELS 3 Zrotation Yrotation Xrotation
				JOINT LeftForeArm
				{
					OFFSET 4.983000 -0.000000 -0.000000 
					CHANNELS 3 Zrotation Yrotation Xrotation
					JOINT LeftHand
					{
						OFFSET 3.483560 -0.000000 -0.000000 
						CHANNELS 3 Zrotation Yrotation Xrotation
						JOINT LeftHandIndex1
						{
							OFFSET 0.715260 -0.000000 -0.000000 
							CHANNELS 3 Zrotation Yrotation Xrotation
							End Site
							{
								OFFSET 0.000000 0.000000 0.000000 
							}
						}
					}
				}
			}
			JOINT RightArm
			{
				OFFSET -3.136600 1.374050 -0.404650 
				CHANNELS 3 Zrotation Yrotation Xrotation
				JOINT RightForeArm
				{
					OFFSET -5.241900 -0.000000 -0.000000 
					CHANNELS 3 Zrotation Yrotation Xrotation
					JOINT RightHand
					{
						OFFSET -3.444170 -0.000000 -0.000000 
						CHANNELS 3 Zrotation Yrotation Xrotation
						JOINT RightHandIndex1
						{
							OFFSET -0.622530 -0.000000 -0.000000 
							CHANNELS 3 Zrotation Yrotation Xrotation
							End Site
							{
								OFFSET 0.000000 0.000000 0.000000 
							}
						}
					}
				}
			}
		}
	}
}
MOTION
Frames: 12
Frame Time: 0.041667
23.998205 17.511660 -3.477306 -12.178339 -28.908243 60.632785 37.432856 -19.106405 -56.177559 -0.531420 5.199072 8.109966 -4.920525 28.490173 -22.610956 0.017700 -0.859500 -2.362300 -20.689191 35.286615 -71.358932 -1.024633 -10.213340 24.960553 -0.002635 -2.703126 -5.667993 -0.123800 2.267900 -6.246500 0.429890 2.758463 -2.933306 -2.862526 1.893544 -16.358168 -15.763586 27.774279 -20.180259 -16.019300 9.071900 -8.438200 -62.557259 28.530438 6.824208 12.217711 -18.311277 -2.906278 -1.372061 -3.148252 -32.146832 -7.125000 0.000000 0.000000 64.378877 -29.945505 -28.737250 -5.228407 7.741417 -1.418778 0.922009 -1.984785 26.175833 7.125000 0.000000 0.000000 
24.019531 17.515804 -3.475992 -11.900519 -29.072115 60.559682 37.469267 -19.379636 -56.134492 -0.543090 5.058734 7.720794 -4.921378 28.479129 -22.580086 0.014200 -0.769700 -2.115300 -20.509114 34.914963 -71.250872 -0.983437 -10.182080 24.805515 0.155027 -3.723806 -5.505649 -0.725500 5.442600 -15.175200 0.439896 2.823035 -2.981533 -2.972950 1.910010 -16.729979 -15.807021 27.651489 -20.065278 -16.263300 9.028200 -8.626400 -62.655520 29.102151 6.618438 12.156378 -18.218811 -2.879470 -1.390336 -3.153288 -31.908880 -7.125000 0.000000 0.000000 64.373606 -30.559632 -28.437201 -5.216260 7.745939 -1.409938 0.933299 -1.971487 25.987300 7.125000 0.000000 0.000000 
24.036511 17.518735 -3.475891 -11.664464 -29.315501 60.691965 38.051200 -19.896614 -56.159394 -0.545891 4.972373 7.448858 -4.986752 28.825203 -23.069841 0.015600 -0.807500 -2.219200 -20.933850 34.730555 -71.492313 -0.951125 -10.147641 24.645015 0.189475 -4.033568 -6.549296 -0.784000 5.652800 -15.780100 0.439713 2.955874 -2.941106 -3.042398 1.953648 -16.442980 -16.012214 27.671543 -20.148466 -16.289600 9.043400 -8.547600 -62.498823 29.368591 7.319227 12.325127 -18.506370 -2.960455 -1.313730 -3.231160 -32.699640 -7.125000 0.000000 0.000000 64.395212 -30.368595 -28.996854 -5.181644 7.696944 -1.399591 0.924445 -1.973827 26.348149 7.125000 0.000000 0.000000 
24.054704 17.526417 -3.474375 -11.353215 -29.669243 60.713988 38.469426 -20.487249 -56.139363 -0.557140 4.898428 7.192676 -5.193763 29.625572 -23.294626 0.077800 -1.798900 -4.950200 -21.375728 34.520062 -71.633896 -0.927626 -10.099627 24.469368 0.306928 -4.743662 -6.222101 -1.044500 6.499500 -18.240700 0.435915 3.009813 -2.911996 -3.089601 1.970686 -16.245257 -16.127415 27.700586 -20.192878 -16.293600 9.061000 -8.498700 -62.519047 29.302423 6.974785 12.175623 -18.310006 -2.896745 -1.304091 -3.231986 -32.456570 -7.125000 0.000000 0.000000 64.350291 -30.101468 -29.723253 -5.101765 7.575795 -1.390475 0.923606 -1.990126 26.932740 7.125000 0.000000 0.000000 
24.074212 17.537231 -3.469726 -10.868750 -30.094461 60.477594 38.064356 -20.764464 -56.161487 -0.585280 4.818856 6.939089 -5.377416 30.182296 -22.695369 0.229900 -3.086400 -8.519300 -21.699056 34.225012 -71.451261 -0.904124 -10.052070 24.290678 0.426162 -5.463289 -5.831192 -1.234600 7.046300 -19.852600 0.418563 3.071598 -2.908005 -3.198223 1.988468 -16.269722 -16.124567 27.533394 -20.055967 -16.297400 9.009000 -8.404600 -62.400232 29.428466 6.788167 12.030943 -18.111272 -2.837116 -1.342125 -3.216701 -32.046328 -7.125000 0.000000 0.000000 64.543531 -30.190962 -30.057409 -5.075369 7.526709 -1.388987 0.921583 -1.996778 27.088218 7.125000 0.000000 0.000000 
24.094527 17.547238 -3.463459 -10.459576 -30.472050 60.236334 37.499957 -20.892158 -56.124583 -0.619239 4.749856 6.756031 -5.189607 29.506168 -22.776901 0.244600 -3.182500 -8.787300 -22.210373 34.132119 -71.235378 -0.893684 -10.019647 24.176896 0.553815 -6.236048 -5.719856 -1.378900 7.430500 -20.997300 0.410668 3.155744 -2.910359 -3.291777 2.018198 -16.362127 -16.196912 27.379460 -19.981788 -16.391600 8.947200 -8.360500 -62.358618 29.639001 6.605091 11.919835 -17.956677 -2.793637 -1.359044 -3.218842 -31.891587 -7.125000 0.000000 0.000000 64.820305 -30.128862 -31.710355 -5.024855 7.411458 -1.394195 0.866934 -2.038069 28.654953 7.125000 0.000000 0.000000 
24.115955 17.553706 -3.455879 -10.283168 -30.634491 60.160444 37.235507 -20.946919 -56.107808 -0.632671 4.690670 6.608330 -4.946776 28.641091 -22.959239 0.211200 -2.959000 -8.164800 -22.555694 34.158963 -71.142064 -0.891007 -10.017565 24.159727 0.670114 -6.934687 -5.907136 -1.625100 8.037100 -22.826700 0.447022 3.250772 -2.923129 -3.226463 2.061432 -16.485937 -16.321320 27.354682 -19.959458 -16.468700 8.965700 -8.366100 -62.594071 30.025233 6.298499 11.862904 -17.869301 -2.765481 -1.349923 -3.219751 -32.132996 -7.125000 0.000000 0.000000 64.867622 -29.486830 -35.970686 -4.887651 7.114726 -1.395199 0.712673 -2.131307 32.912334 7.125000 0.000000 0.000000 
24.142233 17.561792 -3.448400 -10.006961 -30.820383 60.071718 36.986184 -20.997661 -56.302833 -0.645844 4.662555 6.517053 -4.898945 28.440433 -22.646063 0.236900 -3.132300 -8.647300 -22.868475 33.997321 -71.074606 -0.898351 -10.032684 24.183807 0.704937 -7.145921 -6.028867 -1.474800 7.673600 -21.727100 0.485619 3.267243 -2.932703 -3.185484 2.054227 -16.566197 -16.468785 27.396588 -19.960459 -16.518400 9.015400 -8.326100 -62.810708 30.472299 6.194314 11.861427 -17.864881 -2.755875 -1.360454 -3.202019 -32.324312 -7.125000 0.000000 0.000000 64.539225 -30.283936 -30.537385 -5.097938 7.518683 -1.401002 0.924789 -2.003059 27.695631 7.125000 0.000000 0.000000 
24.173566 17.570383 -3.441426 -9.441906 -31.360846 59.913949 36.321040 -21.044070 -56.617620 -0.687991 4.657834 6.477087 -4.949736 28.602880 -22.193804 0.285100 -3.434200 -9.489900 -23.432183 33.528542 -71.104071 -0.918463 -10.061764 24.223929 0.684163 -7.031815 -5.877294 -1.120200 6.723300 -18.898300 0.469816 3.233264 -2.922778 -3.268372 2.032796 -16.481591 -16.600212 27.326515 -19.896994 -16.576700 8.994700 -8.190800 -62.702154 30.723580 6.609693 11.810062 -17.820526 -2.739967 -1.364071 -3.218980 -32.581987 -7.125000 0.000000 0.000000 64.380684 -30.295239 -29.669931 -5.043317 7.480180 -1.392062 0.955900 -1.996285 26.850538 7.125000 0.000000 0.000000 
24.202877 17.575639 -3.431015 -8.952363 -31.960331 59.826613 35.574023 -21.063031 -56.831751 -0.735560 4.648173 6.437891 -4.928067 28.525176 -22.026944 0.275600 -3.376500 -9.328900 -24.127200 33.182267 -71.274296 -0.936137 -10.101659 24.290337 0.751978 -7.443665 -6.042626 -1.065300 6.561900 -18.423900 0.451467 3.284463 -2.919048 -3.330489 2.055497 -16.422746 -16.693741 27.161916 -19.745579 -16.632900 8.940400 -8.010700 -62.502361 31.003332 7.348574 11.812439 -17.868829 -2.759338 -1.341657 -3.279625 -33.146806 -7.125000 0.000000 0.000000 64.180623 -30.005622 -30.563432 -4.874448 7.237357 -1.366824 0.937459 -2.025584 27.749691 7.125000 0.000000 0.000000 
24.226629 17.583219 -3.419998 -8.651074 -32.345246 59.723977 35.074196 -21.137870 -56.939641 -0.767295 4.663530 6.474455 -4.788108 28.029431 -22.132709 0.199200 -2.874000 -7.928200 -24.951114 33.263448 -71.423259 -0.948752 -10.131633 24.356475 0.946791 -8.574978 -6.505479 -1.099200 6.662000 -18.717900 0.466519 3.373522 -2.936702 -3.304740 2.096190 -16.572553 -16.774055 27.039661 -19.623939 -16.790800 8.905200 -8.017500 -62.516196 31.467016 7.512474 11.786808 -17.859036 -2.754808 -1.345250 -3.297866 -33.328168 -7.125000 0.000000 0.000000 63.904121 -30.135137 -30.147952 -4.817156 7.176038 -1.351177 0.957692 -2.016549 27.616219 7.125000 0.000000 0.000000 
24.248360 17.592013 -3.411306 -8.431668 -32.681493 59.543600 34.663887 -21.182962 -56.992012 -0.788239 4.698319 6.562440 -4.704838 27.708276 -22.065224 0.163800 -2.607300 -7.187200 -25.574788 33.416937 -71.440705 -0.968587 -10.156896 24.433600 1.080414 -9.328148 -6.578509 -0.959500 6.237100 -17.473900 0.482521 3.470902 -2.936216 -3.299965 2.132901 -16.634655 -16.819991 26.978943 -19.538803 -16.811600 8.905700 -7.966600 -62.558875 31.719610 7.226739 11.644024 -17.660561 -2.690338 -1.372394 -3.267159 -33.143543 -7.125000 0.000000 0.000000 63.856844 -30.178191 -30.123688 -4.806548 7.173141 -1.355146 0.935425 -2.031802 27.711085 7.125000 0.000000 0.000000 
